<svg width="500" height="500" viewBox="0 0 500 500" fill="none" xmlns="http://www.w3.org/2000/svg">
<path fill-rule="evenodd" clip-rule="evenodd" d="M248.519 498.688C248.125 498.169 247.581 497.034 247.31 496.167C246.549 493.74 245.183 486.438 245.254 485.183C245.289 484.567 244.592 482.377 243.704 480.317C239.959 471.622 231.788 467.316 223.767 469.809C218.304 471.507 215.067 474.425 212.501 479.963C211.918 481.222 210.448 484.401 209.235 487.029C208.021 489.657 206.525 492.564 205.908 493.49L204.788 495.172L200.657 494.608C194.965 493.832 193.599 493.298 192.879 491.571C192.468 490.585 192.367 487.245 192.57 481.292C192.929 470.721 192.508 468.655 189.157 464.539C184.322 458.599 176.886 456.506 170.083 459.17C166.071 460.741 163.537 463.053 158.551 469.688C156.403 472.547 153.804 475.749 152.776 476.804L150.906 478.723L146.707 476.987C144.398 476.032 141.962 474.767 141.293 474.176C140.145 473.162 140.107 472.907 140.609 469.573C140.902 467.631 141.881 463.605 142.784 460.624C145.465 451.788 144.573 445.742 139.891 440.998C136.619 437.683 133.198 436.161 128.402 435.887C122.629 435.558 119.726 436.787 113.394 442.239C102.717 451.432 102.645 451.455 97.3895 447.265C95.5913 445.831 93.9639 444.403 93.7733 444.091C92.6689 442.285 94.0183 438.486 98.7245 430.154C101.149 425.86 101.445 425.001 101.831 421.135C102.225 417.19 102.148 416.603 100.827 413.481C99.322 409.926 96.7383 406.993 93.2868 404.923C91.8267 404.047 90.0516 403.597 86.6667 403.244C81.1545 402.668 80.3928 402.884 72.4456 407.267C65.6007 411.042 62.4778 412.268 60.938 411.787C59.3909 411.303 53.8491 404.599 53.923 403.3C54.0147 401.688 56.4889 397.836 59.4971 394.621C66.2147 387.441 68.3886 383.119 68.1287 377.462C67.9727 374.067 65.6228 368.842 63.266 366.65C60.5168 364.092 56.39 362.076 52.9281 361.598C50.2511 361.228 49.0346 361.395 44.3348 362.772C37.9283 364.65 32.0807 365.961 30.5086 365.871C29.8971 365.836 29.0556 365.382 28.6385 364.861C27.1352 362.985 24.5723 357.145 24.6503 355.774C24.7574 353.893 27.6109 350.998 33.133 347.168C40.8731 341.799 43.1676 338.727 43.9006 332.75C44.2255 330.1 44.1408 328.259 43.5941 326.097C42.1769 320.493 36.3921 315.078 30.6206 313.955C29.3472 313.707 24.8619 313.699 20.6534 313.936C11.6688 314.444 9.2546 314.072 8.37262 312.044C7.19477 309.337 5.88482 303.577 6.23687 302.652C6.9228 300.852 9.63303 299.146 16.4384 296.233C27.4769 291.508 31.5213 286.848 31.4804 278.902C31.435 270.074 25.6388 263.67 16.0436 261.847C3.27446 259.42 1.28406 258.797 0.466677 256.973C-0.15339 255.59 -0.156333 248.486 0.462523 247.1C1.18758 245.476 5.49162 243.912 13.1616 242.486C21.7798 240.884 25.901 238.514 28.9249 233.422C30.1934 231.286 30.4679 230.217 30.6958 226.523C30.9287 222.75 30.791 221.737 29.6928 219.135C28.1905 215.575 24.4948 211.63 21.4486 210.336C10.3789 205.632 5.20233 202.815 4.81005 201.28C4.68109 200.776 4.90547 198.855 5.30815 197.011C6.9417 189.536 7.21542 189.394 19.3766 189.739C30.0718 190.043 31.7171 189.662 36.3129 185.827C40.9376 181.967 42.8785 176.433 41.705 170.453C40.5646 164.641 37.7066 161.094 29.8456 155.734C24.4355 152.044 21.9539 149.399 22.0655 147.438C22.1578 145.816 24.1262 141.49 25.6969 139.458C26.2497 138.743 27.3351 138.073 28.109 137.971C29.8906 137.734 34.9049 138.711 40.7734 140.441C50.4453 143.29 58.1216 140.889 62.4726 133.653C63.8099 131.43 64.0256 130.54 64.2704 126.239C64.5193 121.866 64.4117 121.05 63.2475 118.49C62.466 116.771 59.657 112.985 56.212 109.007C53.0264 105.329 50.3591 101.767 50.2111 100.993C49.9193 99.4659 52.3159 95.4794 55.25 92.6106C56.7044 91.1886 56.961 91.1241 59.4225 91.5591C61.1147 91.8579 64.3607 93.3035 68.5705 95.6324L75.0956 99.2423L79.9795 99.5207C84.1545 99.7586 85.2333 99.636 87.4118 98.6742C94.8171 95.4056 98.9569 86.6354 96.7245 78.9452C96.2458 77.2962 94.6193 73.8343 93.1099 71.2521C91.6006 68.67 89.7787 65.0961 89.0612 63.3102L87.7569 60.0631L88.9818 58.5335C90.711 56.3746 95.9489 52.6873 97.1863 52.7578C98.6961 52.8439 103.577 55.9483 106.877 58.9207C111.484 63.071 112.558 63.8108 115.994 65.1979C126.339 69.3735 136.918 63.0254 138.279 51.8265C138.656 48.7207 138.541 47.5251 137.546 44.2115C135.736 38.1871 134.31 32.0621 134.346 30.4696C134.366 29.5561 134.926 28.5234 135.883 27.631C137.731 25.9086 143.088 23.373 144.687 23.4641C146.039 23.5411 151.413 29.4375 154.97 34.7468C157.496 38.5162 159.986 40.5036 164.418 42.2885C167.061 43.3529 167.882 43.4668 170.65 43.1533C176.769 42.46 180.898 39.7999 183.781 34.6937L185.61 31.4552L185.624 25.4007C185.632 22.0708 185.604 17.3205 185.562 14.8444C185.465 9.08643 185.961 8.33359 190.68 7.07565C195.727 5.73055 197.516 5.96242 199.402 8.20604C200.253 9.21889 202.242 12.9329 203.821 16.4594C206.965 23.4768 209.83 27.0691 214.152 29.4112C217.517 31.2345 223.266 31.4838 227.003 29.9686C233.136 27.4816 236.074 23.2116 237.785 14.299C239.314 6.32985 240.612 2.02465 241.806 0.958724C243.024 -0.129528 250.17 -0.358831 252.308 0.621728C254.195 1.48734 255.362 4.44392 256.665 11.6611C258.034 19.2487 259.394 22.4109 262.78 25.8812C265.841 29.0193 268.19 30.0304 273.189 30.3626C276.152 30.5625 277.276 30.3652 280.167 29.1538C285.665 26.8503 287.196 24.9173 291.922 14.3072C295.592 6.06618 296.24 5.26266 299.084 5.42477C302.455 5.61687 306.592 6.79034 307.644 7.85248C309.208 9.43209 309.433 11.061 309.321 19.9991C309.223 27.8559 309.316 28.8072 310.449 31.503C311.956 35.0893 314.799 38.373 317.932 40.1452C321.306 42.0544 327.994 42.43 331.399 40.8956C335.02 39.2707 338.121 36.3442 342.574 30.3497C347.192 24.1332 349.365 22.0913 351.251 22.1988C353.247 22.3125 358.423 24.7563 359.884 26.2746C361.12 27.559 361.156 27.7937 360.668 31.2934C360.386 33.3126 359.436 37.2464 358.558 40.0352C356.633 46.1443 356.485 47.9035 357.57 51.7606C359.695 59.3141 365.109 63.8932 372.405 64.3091C377.548 64.6022 380.462 63.3095 387.404 57.6554C394.086 52.2137 397.06 50.2299 398.421 50.3075C399.406 50.3636 404.797 54.1669 406.332 55.888C406.882 56.5045 407.295 57.651 407.25 58.4355C407.157 60.0748 404.468 66.2277 402.257 69.8623C397.567 77.5702 397.819 85.2829 402.956 91.273C406.034 94.8617 409.103 96.326 414.167 96.6208C419.28 96.9122 421.155 96.4016 426.995 93.0858C433.077 89.6333 436.674 88.1018 438.463 88.2038C439.616 88.2695 440.654 89.1201 443.22 92.1017C446.236 95.6069 446.467 96.0481 446.077 97.555C445.59 99.4377 441.899 104.535 438.451 108.089C435.106 111.535 433.3 115.207 432.759 119.656C431.915 126.607 434.69 132.328 440.426 135.459C443.394 137.078 444.254 137.305 448.138 137.493C451.842 137.674 453.471 137.438 458.799 135.957C462.258 134.996 466.204 134.119 467.568 134.008C469.855 133.823 470.151 133.931 471.377 135.405C472.108 136.283 473.384 138.55 474.212 140.442C475.637 143.699 475.671 143.958 474.859 145.314C473.876 146.956 471.486 149.056 465.984 153.115C461.194 156.648 459.694 158.223 457.861 161.64C455.04 166.902 455.886 174.252 459.871 179.106C462.167 181.902 464.437 183.334 468.742 184.704C471.437 185.561 472.431 185.638 476.059 185.272C481.727 184.701 489.917 185.148 490.921 186.083C491.679 186.789 493.139 191.612 493.616 194.987C493.828 196.481 493.621 196.903 492.018 198.252C491.006 199.104 486.899 201.23 482.893 202.978C475.116 206.369 473.492 207.588 470.863 212.008C469.515 214.275 469.281 215.208 469.051 219.241C468.834 223.03 468.971 224.276 469.804 226.103C471.221 229.213 474.475 232.666 477.494 234.263C480.06 235.62 481.09 235.912 490.897 238.059C496.546 239.296 498.683 240.228 499.396 241.767C500 243.069 500.227 249.827 499.721 251.448C499.17 253.215 496.502 254.19 488.078 255.704C480.098 257.138 478.367 257.849 474.974 261.089C471.271 264.624 470.193 266.932 469.908 271.937C469.621 276.979 470.532 279.688 473.772 283.425C476.411 286.469 478.046 287.515 484.461 290.262C487.041 291.366 490.575 293.093 492.315 294.1L495.478 295.931L494.959 300.375C494.341 305.672 493.546 307.358 491.357 308.014C490.459 308.284 485.784 308.406 480.969 308.287C470.918 308.037 468.619 308.594 464.458 312.289C460.928 315.423 459.206 319.007 458.974 323.702C458.63 330.716 461.019 334.56 469.812 341.119C472.807 343.353 476.106 346.165 477.141 347.368C478.823 349.322 478.979 349.754 478.61 351.423C478.383 352.451 477.425 354.725 476.481 356.477C475.165 358.918 474.441 359.724 473.383 359.927C471.474 360.292 467.12 359.465 461.249 357.623C455.176 355.717 452.633 355.536 448.703 356.729C444.697 357.946 439.506 362.512 438.052 366.1C436.657 369.543 436.475 374.374 437.604 378.012C438.349 380.411 439.61 382.257 444.151 387.59C447.244 391.224 450.186 395.085 450.688 396.17L451.601 398.143L450.235 400.4C448.227 403.718 444.787 407.026 443.425 406.948C442.287 406.883 436.586 404.157 429.821 400.442C426.763 398.764 425.799 398.489 422.207 398.278C417.29 397.98 414.446 398.914 410.638 402.045C407.122 404.936 405.289 408.276 404.732 412.805C404.163 417.43 404.93 420.427 408.063 425.827C410.52 430.062 413.558 436.979 413.489 438.182C413.467 438.571 411.816 440.4 409.821 442.245C406.656 445.173 405.957 445.588 404.344 445.496C402.409 445.386 397.951 442.395 393.37 438.135C392.154 437.004 389.703 435.216 387.923 434.162C385.046 432.459 384.252 432.226 380.78 432.068C376.335 431.862 373.598 432.746 369.884 435.578C366.991 437.783 365.119 440.669 364.127 444.453C363.107 448.346 363.365 451.375 365.206 457.094C367.111 463.009 368.136 468.356 367.659 469.884C367.24 471.224 359.309 475.446 357.413 475.339C356.263 475.273 355.319 474.248 347.949 465.072C341.916 457.56 339.415 456.033 333.076 455.993C327.862 455.961 325.611 456.796 321.747 460.198C317.838 463.638 316.76 466.044 316.468 471.973C316.334 474.662 316.243 479.821 316.261 483.437C316.286 488.468 316.13 490.188 315.599 490.758C314.853 491.56 307.089 493.632 305.229 493.526C303.737 493.441 301.8 490.368 298.836 483.384C294.805 473.887 290.091 469.418 283.264 468.624C278.299 468.046 274.74 469.016 271.181 471.917C266.879 475.424 265.856 477.607 263.873 487.502C261.341 500.135 261.202 500.308 253.923 499.893C253.421 499.784 252.794 499.742 252.14 499.699C250.722 499.605 249.179 499.503 248.519 498.688ZM442 250.5C442 356.263 356.263 442 250.5 442C144.737 442 59 356.263 59 250.5C119.59 177.383 163.117 187.272 205.328 214.398C204.789 215.009 204.391 215.726 204.448 216.026C204.482 216.203 205.09 217.015 205.816 217.854C206.602 218.761 207.242 219.624 207.42 220.016C207.686 220.6 207.71 220.785 207.654 221.783C207.598 222.763 207.549 222.966 207.244 223.473C206.252 225.123 204.502 225.67 202.296 225.02C200.958 224.626 199.815 224.403 199.409 224.457C199.232 224.481 198.985 224.633 198.859 224.796C198.501 225.26 198.052 226.246 198.031 226.616C198.005 227.063 198.571 227.666 199.805 228.507C201.597 229.729 202.249 230.538 202.509 231.863C202.776 233.227 202.334 234.488 201.279 235.369C200.232 236.243 199.856 236.33 197.418 236.261C194.645 236.182 194.583 236.214 194.21 237.918C194.118 238.339 194.067 238.777 194.097 238.892C194.186 239.242 195.366 239.884 197.89 240.957C198.585 241.252 199.427 242.151 199.77 242.963C200.02 243.556 200.052 243.787 199.999 244.647C199.947 245.489 199.884 245.733 199.595 246.22C198.905 247.381 197.966 247.922 196.001 248.287C194.252 248.612 193.271 248.969 193.105 249.339C192.964 249.655 192.965 251.275 193.106 251.59C193.293 252.006 193.747 252.148 196.658 252.701C198.846 253.117 200.167 254.577 200.178 256.59C200.187 258.401 199.265 259.464 196.748 260.541C195.196 261.205 194.578 261.594 194.422 262.005C194.342 262.215 194.64 263.529 194.909 264.146C195.11 264.608 195.66 264.693 197.709 264.578C198.669 264.523 199.691 264.525 199.982 264.582C201.297 264.838 202.616 266.072 202.939 267.35C203.064 267.843 203.083 268.263 203.009 268.867C202.842 270.23 202.319 270.93 200.554 272.154C199.295 273.027 198.645 273.688 198.62 274.116C198.602 274.429 199.187 275.761 199.53 276.188C199.625 276.307 199.817 276.411 199.956 276.419C200.314 276.439 201.648 276.14 203.108 275.712C204.18 275.398 204.457 275.36 205.068 275.444C205.857 275.553 206.798 276.013 207.425 276.596C207.962 277.096 208.498 278.287 208.533 279.061C208.593 280.351 208.097 281.337 206.565 282.974C205.879 283.707 205.315 284.585 205.294 284.952C205.278 285.248 206.541 286.777 206.894 286.887C207.245 286.997 207.957 286.718 209.518 285.857C211.33 284.858 211.503 284.808 212.76 284.94C213.532 285.02 213.936 285.123 214.269 285.322C215.056 285.794 215.645 286.463 215.988 287.274C216.29 287.986 216.307 288.119 216.217 289.019C216.13 289.9 216.062 290.096 215.509 291.075C214.436 292.975 214.129 293.841 214.38 294.253C214.424 294.324 214.795 294.65 215.205 294.976C216.403 295.932 216.419 295.927 218.854 293.83C220.298 292.587 220.959 292.307 222.276 292.382C223.369 292.445 224.149 292.792 224.895 293.548C225.963 294.629 226.166 296.008 225.555 298.022C225.349 298.702 225.126 299.62 225.059 300.063C224.944 300.823 224.953 300.881 225.215 301.112C225.367 301.247 225.923 301.535 226.449 301.753L227.407 302.149L227.833 301.711C228.067 301.471 228.66 300.741 229.15 300.089C230.286 298.576 230.864 298.049 231.779 297.691C233.33 297.083 235.025 297.561 236.128 298.915C236.892 299.853 236.988 300.324 236.906 302.735C236.86 304.092 236.883 304.853 236.976 305.078C237.141 305.472 237.452 305.594 238.75 305.771L239.692 305.899L239.947 305.516C240.088 305.305 240.429 304.642 240.706 304.043L241.024 303.353C241.203 302.966 241.367 302.612 241.45 302.432C242.035 301.169 242.773 300.504 244.019 300.116C245.848 299.548 247.711 300.53 248.565 302.512C248.767 302.982 248.926 303.481 248.918 303.622C248.902 303.908 249.213 305.573 249.387 306.126C249.449 306.324 249.573 306.582 249.662 306.701C249.813 306.887 250.165 306.91 250.488 306.931C250.637 306.941 250.78 306.951 250.894 306.976C252.554 307.07 252.586 307.031 253.163 304.151C253.615 301.894 253.849 301.397 254.829 300.597C255.641 299.936 256.452 299.714 257.584 299.846C259.141 300.027 260.216 301.046 261.135 303.212C261.81 304.804 262.252 305.505 262.592 305.524C263.016 305.548 264.787 305.076 264.957 304.893C265.078 304.763 265.113 304.371 265.107 303.224C265.103 302.399 265.124 301.223 265.155 300.61C265.221 299.258 265.467 298.709 266.358 297.925C267.239 297.15 267.753 296.959 268.941 296.967C270.387 296.976 270.957 297.324 272.332 299.036C274.013 301.129 274.228 301.362 274.49 301.377C274.922 301.402 276.731 300.439 276.826 300.133C276.935 299.785 276.701 298.566 276.267 297.218C275.847 295.914 275.788 295.223 276.021 294.335C276.247 293.473 276.674 292.815 277.333 292.312C278.18 291.666 278.804 291.465 279.818 291.511C280.61 291.548 280.79 291.601 281.446 291.989C281.852 292.229 282.411 292.637 282.688 292.895C283.733 293.866 284.749 294.548 285.19 294.573C285.558 294.594 285.717 294.5 286.439 293.832C286.894 293.411 287.27 292.994 287.276 292.905C287.291 292.631 286.598 291.054 286.038 290.089C285.324 288.857 285.149 288.174 285.279 287.12C285.406 286.087 285.824 285.325 286.626 284.666C287.494 283.952 288.142 283.74 289.263 283.807C290.082 283.856 290.302 283.918 290.999 284.301C292.542 285.148 293.841 285.769 294.101 285.784C294.411 285.802 295.196 285.048 295.654 284.291L295.965 283.777L295.757 283.327C295.642 283.079 294.972 282.199 294.266 281.371C293.231 280.155 292.944 279.734 292.774 279.187C292.516 278.357 292.558 277.256 292.876 276.471C293.207 275.653 294.391 274.612 295.304 274.334C296.2 274.062 296.78 274.104 298.165 274.538C298.552 274.66 298.911 274.762 299.236 274.844C310.995 279.299 323.341 282 336.5 282C396.32 282 422.221 238.089 433.436 219.076C436.649 213.629 438.657 210.225 439.911 210.483C442 210.913 442 221.499 442 249.717V250.5ZM299.236 274.844C300.032 275.044 300.622 275.123 300.931 275.063C301.173 275.017 301.338 274.833 301.638 274.277C301.853 273.877 302.071 273.359 302.123 273.125C302.207 272.744 302.172 272.645 301.788 272.2C301.552 271.926 300.8 271.284 300.117 270.775C298.112 269.28 297.568 268.403 297.646 266.804C297.699 265.734 298.092 264.917 298.896 264.202C299.845 263.36 300.369 263.232 302.661 263.289C303.759 263.317 304.825 263.289 305.029 263.227C305.528 263.078 305.71 262.693 305.851 261.486L305.969 260.472L305.248 260.055C304.851 259.825 304.045 259.431 303.457 259.18C301.995 258.553 301.622 258.315 301.02 257.621C300.281 256.769 300.074 256.151 300.139 255.002C300.204 253.861 300.45 253.334 301.294 252.528C302.068 251.79 302.462 251.627 304.282 251.3C306.203 250.955 306.811 250.733 306.936 250.33C307.052 249.961 307 248.42 306.862 248.123C306.7 247.772 306.213 247.56 304.924 247.277C302.688 246.788 302.454 246.721 301.869 246.412C301.18 246.048 300.438 245.261 300.115 244.552C299.925 244.135 299.894 243.851 299.944 242.987C299.996 242.067 300.049 241.855 300.357 241.338C300.956 240.33 301.326 240.052 303.1 239.279C304.013 238.881 304.949 238.396 305.18 238.201C305.546 237.894 305.593 237.798 305.545 237.457C305.436 236.688 305.103 235.588 304.93 235.427C304.701 235.214 302.834 235.112 301.541 235.242C300.714 235.325 300.488 235.308 299.873 235.112C298.892 234.8 298.374 234.474 297.851 233.836C296.942 232.729 296.749 231.054 297.392 229.854C297.81 229.075 298.152 228.716 299.244 227.91C300.499 226.985 301.044 226.506 301.268 226.132C301.453 225.822 301.445 225.763 301.12 225.021C300.931 224.589 300.641 224.073 300.474 223.872C300.194 223.536 300.127 223.512 299.605 223.554C299.294 223.579 298.395 223.779 297.606 223.998C296.391 224.336 296.02 224.39 295.176 224.348C294.29 224.306 294.094 224.254 293.417 223.885C292.109 223.171 291.477 221.866 291.669 220.282C291.792 219.267 292.204 218.43 292.967 217.644C293.753 216.834 294.595 215.672 294.706 215.243C294.795 214.899 294.742 214.798 294.054 213.999C293.469 213.319 293.233 213.125 292.97 213.11C292.562 213.087 291.742 213.436 290.355 214.224C289.023 214.98 288.596 215.096 287.43 215.03C286.276 214.962 285.576 214.628 284.874 213.81C283.703 212.444 283.645 210.686 284.715 208.929C285.219 208.1 285.832 206.697 285.853 206.323C285.863 206.144 285.769 205.883 285.644 205.742C285.294 205.35 284.065 204.483 283.84 204.47C283.53 204.452 282.852 204.905 281.328 206.145C279.745 207.435 279.081 207.729 277.908 207.662C276.245 207.568 275.011 206.524 274.526 204.801C274.279 203.922 274.312 203.521 274.751 202.128C274.951 201.492 275.168 200.595 275.232 200.135C275.344 199.337 275.335 199.283 275.053 198.991C274.72 198.644 273.54 198.087 273.085 198.061C272.655 198.037 272.16 198.502 271.107 199.92C270.092 201.286 269.385 201.954 268.559 202.324C267.783 202.674 266.258 202.588 265.488 202.153C264.774 201.749 264.126 201 263.782 200.183C263.524 199.568 263.503 199.351 263.525 197.56C263.551 195.522 263.499 195.151 263.143 194.79C262.903 194.548 261.96 194.281 261.191 194.237C260.543 194.2 260.395 194.383 259.558 196.262C258.481 198.681 258.132 199.122 256.878 199.647C256.219 199.923 255.963 199.968 255.287 199.923C254.147 199.847 253.612 199.616 252.914 198.901C252.142 198.11 251.832 197.389 251.52 195.659C251.223 194.013 250.957 193.339 250.526 193.142C250.039 192.918 248.41 192.97 248.132 193.219C247.859 193.462 247.564 194.443 247.215 196.26C246.825 198.292 246.155 199.266 244.757 199.833C243.905 200.178 242.594 200.121 241.827 199.706C240.841 199.172 240.188 198.353 239.471 196.753C239.111 195.949 238.658 195.102 238.464 194.871C238.034 194.359 237.626 194.307 236.475 194.613C235.399 194.9 235.286 195.072 235.308 196.385C235.318 196.949 235.324 198.032 235.322 198.791L235.319 200.172L234.902 200.91C234.245 202.074 233.303 202.681 231.908 202.839C231.277 202.91 231.09 202.884 230.487 202.642C229.477 202.235 228.909 201.782 228.333 200.922C227.522 199.712 226.297 198.367 225.989 198.35C225.624 198.329 224.403 198.907 223.981 199.3C223.763 199.503 223.635 199.739 223.631 199.947C223.623 200.31 223.948 201.707 224.36 203.08C224.587 203.836 224.614 204.108 224.528 204.816C224.217 207.37 221.805 208.817 219.447 207.865C218.663 207.549 218.418 207.38 217.368 206.434C216.616 205.756 215.503 205.048 215.158 205.029C214.876 205.013 213.682 205.853 213.288 206.346L213.009 206.694L213.306 207.435C213.47 207.842 213.885 208.657 214.229 209.245C214.573 209.834 214.944 210.624 215.053 211C215.562 212.753 214.618 214.752 212.93 215.498C212.433 215.717 212.187 215.745 211.235 215.691L210.122 215.627L208.634 214.804C207.674 214.273 206.934 213.944 206.548 213.875C205.987 213.776 205.929 213.791 205.597 214.115C205.505 214.205 205.415 214.301 205.328 214.398C215.252 220.775 225.102 228.105 235.084 235.533L235.086 235.535L235.086 235.535L235.087 235.535L235.087 235.535L235.087 235.536L235.088 235.536L235.088 235.536L235.088 235.536L235.089 235.536L235.089 235.537L235.089 235.537L235.09 235.537C255.357 250.619 276.169 266.105 299.236 274.844ZM100.232 140.884C97.0482 137.613 94.7551 134.278 93.3529 130.879C91.966 127.466 91.6195 124.097 92.3133 120.772C93.0071 117.448 94.8981 114.283 97.9863 111.277C101.09 108.257 104.32 106.452 107.677 105.864C111.02 105.261 114.378 105.714 117.752 107.223C121.111 108.717 124.367 111.084 127.522 114.325C130.721 117.612 133.021 120.97 134.423 124.399C135.81 127.812 136.156 131.181 135.462 134.506C134.784 137.815 132.901 140.973 129.812 143.979C126.694 147.014 123.456 148.826 120.098 149.414C116.757 149.987 113.406 149.527 110.047 148.033C106.673 146.524 103.401 144.141 100.232 140.884ZM107.892 133.43C109.067 134.638 110.326 135.809 111.668 136.944C113.026 138.063 114.424 138.965 115.863 139.648C117.318 140.317 118.762 140.593 120.197 140.476C121.617 140.345 122.992 139.632 124.322 138.337C125.637 137.058 126.379 135.71 126.549 134.294C126.704 132.863 126.46 131.419 125.816 129.962C125.187 128.49 124.324 127.068 123.226 125.695C122.144 124.308 121.015 123.01 119.839 121.802C118.664 120.594 117.397 119.431 116.04 118.311C114.697 117.176 113.306 116.282 111.867 115.629C110.443 114.961 109.021 114.693 107.601 114.825C106.166 114.941 104.791 115.639 103.477 116.918C102.147 118.213 101.404 119.576 101.249 121.007C101.079 122.423 101.301 123.859 101.914 125.315C102.544 126.757 103.399 128.172 104.482 129.559C105.58 130.932 106.716 132.222 107.892 133.43ZM155.931 110.969C156.352 110.759 156.711 110.572 157.01 110.406L164.982 105.977C165.28 105.812 165.63 105.606 166.03 105.359C166.43 105.112 166.807 104.891 167.161 104.694L170.275 107.796C171.883 109.416 173.274 110.34 174.449 110.566C175.614 110.773 176.905 110.483 178.322 109.695C179.161 109.229 180.014 108.634 180.88 107.908C181.765 107.173 182.417 106.457 182.835 105.761L149.937 74.8737C149.138 75.1472 148.219 75.5356 147.181 76.0391C146.132 76.5239 145.253 76.9631 144.545 77.3568C143.799 77.7711 142.938 78.286 141.962 78.9014C141.004 79.5063 140.203 80.0616 139.556 80.5672L148.029 124.948L148.629 125.238C149.247 125.163 150.001 124.939 150.892 124.566C151.812 124.202 152.608 123.833 153.279 123.46C153.969 123.077 154.616 122.681 155.219 122.273C155.851 121.873 156.41 121.452 156.897 121.011L154.769 111.578C155.142 111.371 155.529 111.167 155.931 110.969ZM152.954 103.434L151.804 98.3991C151.543 97.2263 151.233 95.9219 150.875 94.4859C150.525 93.021 150.156 91.5663 149.769 90.1221C149.381 88.6778 148.991 87.3817 148.597 86.2338L148.933 86.0473C150.425 87.6346 152.05 89.3307 153.809 91.1356C155.568 92.9404 157.097 94.507 158.397 95.8353L161.318 98.7882L160.227 99.3942C159.862 99.5724 159.54 99.7391 159.26 99.8945L155.176 102.163C154.859 102.339 154.501 102.551 154.101 102.797L152.954 103.434ZM224.97 92.3824C224.573 93.4971 223.831 94.4689 222.744 95.2978C221.677 96.1214 220.483 96.7026 219.16 97.0413C217.362 97.5018 215.941 97.3702 214.897 96.6466C213.853 95.9231 212.788 94.6874 211.701 92.9395L207.519 86.281C206.396 84.4765 205.284 83.2747 204.184 82.6756C203.084 82.0765 201.8 81.9649 200.333 82.3406C199.609 82.5259 198.721 82.7974 197.667 83.1553L202.192 100.825C201.403 101.181 200.548 101.499 199.629 101.779C198.735 102.074 197.958 102.306 197.297 102.475C196.697 102.629 195.915 102.796 194.948 102.978C193.987 103.18 193.085 103.312 192.242 103.373L181.397 61.028C182.166 60.6769 183.021 60.359 183.961 60.0742C184.896 59.7687 185.663 59.5392 186.262 59.3858C186.923 59.2164 187.716 59.0463 188.642 58.8754C189.582 58.6786 190.484 58.5467 191.348 58.4796L195.532 74.8164C196.09 74.6735 196.604 74.5309 197.074 74.3885C197.859 74.1874 198.383 73.9101 198.645 73.5568C198.901 73.1828 199.138 72.5165 199.355 71.5581L202.364 58.9288C202.667 57.618 203.088 56.5963 203.627 55.8636C204.166 55.131 205.159 54.5794 206.606 54.2089C207.412 54.0025 208.37 53.7901 209.481 53.5716C210.587 53.3324 211.636 53.1298 212.629 52.9637L213.331 53.5107L209.473 69.6607C209.23 70.6918 208.917 71.6637 208.535 72.5766C208.146 73.4688 207.678 74.3045 207.129 75.0838C209.358 75.0192 211.113 75.5059 212.391 76.5438C213.665 77.561 214.785 78.8378 215.751 80.3741L220.254 87.3801C220.979 88.4935 221.574 89.3542 222.038 89.9621C222.523 90.5647 222.986 91.0407 223.428 91.39C223.869 91.7393 224.384 92.0701 224.97 92.3824ZM260.873 92.2507C261.921 90.9131 262.422 88.6232 262.377 85.3808L251.274 85.5372C249.375 85.564 247.382 85.6667 245.294 85.8455L244.882 56.6004C244.85 54.3179 244.304 52.6828 243.244 51.6949C242.185 50.6858 240.674 50.195 238.711 50.2226L234.968 50.2754L234.526 50.6976L235.06 88.6139C235.086 90.4697 235.64 91.9234 236.721 92.9749C237.803 94.0264 239.261 94.5393 241.095 94.5135L255.526 94.3102C258.064 94.2744 259.847 93.5879 260.873 92.2507ZM285.514 88.5378C285.182 88.4615 284.789 88.3606 284.336 88.2349C283.904 88.114 283.48 88.0059 283.065 87.9105L278.34 96.3481C277.683 96.3507 276.985 96.2893 276.248 96.164C275.527 96.0644 274.781 95.9263 274.012 95.7499C273.263 95.5783 272.425 95.3205 271.497 94.9765C270.585 94.658 269.875 94.32 269.366 93.9626L269.113 93.3465L292.488 54.68C293.307 54.7364 294.275 54.8597 295.391 55.05C296.528 55.245 297.513 55.4379 298.344 55.6286C299.134 55.8097 300.081 56.0706 301.185 56.4111C302.294 56.7309 303.237 57.0566 304.014 57.388L307.824 102.352C307.047 102.59 306.084 102.686 304.934 102.642C303.805 102.602 302.773 102.475 301.837 102.26C300.256 101.898 299.103 101.25 298.375 100.317C297.653 99.3639 297.236 97.7471 297.124 95.4671L296.882 91.0782C296.487 90.9876 296.058 90.9003 295.596 90.8162C295.134 90.7321 294.736 90.6519 294.404 90.5757L285.514 88.5378ZM289.672 76.1291L287.16 80.6419L288.439 80.9351C288.901 81.0192 289.309 81.1017 289.663 81.1828L294.217 82.2267C294.528 82.2982 294.88 82.3897 295.27 82.501L296.486 82.7799L296.288 78.6308C296.211 76.7744 296.121 74.5871 296.02 72.0689C295.919 69.5506 295.844 67.2025 295.796 65.0248L295.422 64.939C294.947 66.0558 294.371 67.2806 293.693 68.6136C293.016 69.9465 292.317 71.2747 291.598 72.5981C290.904 73.9055 290.262 75.0825 289.672 76.1291ZM338.979 87.2668C338.772 88.9497 338.588 90.681 338.426 92.4608L336.421 117.425C337.325 118.084 338.246 118.691 339.183 119.246C340.109 119.82 340.864 120.264 341.445 120.579C342.046 120.903 342.944 121.328 344.139 121.854C345.343 122.408 346.347 122.793 347.152 123.01L367.855 84.7298L367.687 84.166L364.759 82.5828C363.033 81.6491 361.539 81.3625 360.277 81.7228C359.033 82.0933 357.869 83.2825 356.783 85.2903L353.069 92.1583C352.368 93.453 351.524 95.082 350.535 97.0452C349.546 99.0085 348.535 101.057 347.502 103.191C346.488 105.334 345.585 107.319 344.791 109.146L344.52 109.108C344.665 107.853 344.834 106.307 345.027 104.471C345.238 102.645 345.434 100.714 345.614 98.6769L347.814 73.8911C346.89 73.2219 345.96 72.6098 345.024 72.0546C344.097 71.4808 343.343 71.0365 342.761 70.7219C342.198 70.4175 341.319 70.0026 340.124 69.4774C338.938 68.9334 337.953 68.5581 337.167 68.3515L316.464 106.632C317.088 107.139 317.792 107.629 318.579 108.103C319.374 108.606 320.044 109.004 320.588 109.299C321.151 109.603 321.804 109.92 322.548 110.249C323.281 110.597 324.049 110.904 324.852 111.168L330.911 99.9655C331.753 98.408 332.689 96.6101 333.719 94.5718C334.748 92.5336 335.75 90.4801 336.723 88.4113C337.725 86.334 338.583 84.4572 339.295 82.781L339.566 82.8184C339.382 84.1011 339.186 85.5839 338.979 87.2668ZM399.069 140.644C397.328 142.433 395.516 144.034 393.635 145.448C391.783 146.861 389.791 147.929 387.659 148.652C385.526 149.375 383.176 149.587 380.607 149.29C379.368 149.156 378.088 148.774 376.767 148.143C375.461 147.527 374.214 146.79 373.026 145.931C371.837 145.072 370.815 144.226 369.959 143.393C367.987 141.473 366.091 139.583 364.27 137.722C362.45 135.891 360.561 133.978 358.603 131.983L358.594 131.35L388.635 100.483L389.268 100.474C391.3 102.332 393.263 104.154 395.158 105.939C397.068 107.738 399.009 109.598 400.982 111.517C401.838 112.35 402.704 113.357 403.58 114.537C404.47 115.701 405.249 116.935 405.915 118.239C406.582 119.542 406.991 120.804 407.144 122.024C407.495 124.569 407.338 126.917 406.673 129.068C406.023 131.204 405.025 133.224 403.678 135.128C402.331 137.032 400.794 138.871 399.069 140.644ZM391.524 133.302C392.655 132.14 393.724 130.888 394.732 129.547C395.769 128.205 396.565 126.837 397.12 125.441C397.704 124.045 397.889 122.647 397.674 121.247C397.489 119.847 396.739 118.507 395.424 117.227L393.177 115.04C392.458 114.341 391.709 113.581 390.928 112.762L370.953 133.287C371.779 134.06 372.55 134.796 373.269 135.495L375.516 137.683C376.831 138.962 378.184 139.683 379.574 139.845C380.994 140.007 382.394 139.777 383.773 139.155C385.183 138.532 386.537 137.692 387.835 136.633C389.163 135.574 390.393 134.464 391.524 133.302ZM113.648 328.012C116.266 328.363 119.111 327.871 122.183 326.536C125.353 325.159 127.693 323.397 129.203 321.252C130.741 319.118 131.537 316.749 131.591 314.143C131.673 311.549 131.11 308.862 129.903 306.084C128.942 303.873 127.956 301.685 126.945 299.519C125.962 297.364 124.897 295.048 123.75 292.569L123.16 292.336L83.3642 309.632C83.5588 310.455 83.8322 311.325 84.1842 312.242C84.5167 313.167 84.8062 313.914 85.0528 314.481C85.3249 315.107 85.6774 315.838 86.1102 316.673C86.532 317.537 86.9815 318.33 87.4586 319.053L100.02 313.594L102.022 318.201C103.23 320.98 104.819 323.22 106.792 324.921C108.773 326.642 111.058 327.673 113.648 328.012ZM107.063 310.533L120.739 304.589C121.06 305.38 121.338 306.073 121.573 306.669L122.339 308.429C123.019 309.995 123.162 311.34 122.767 312.465C122.372 313.591 121.706 314.52 120.768 315.253C119.85 315.977 118.932 316.54 118.012 316.939C117.073 317.347 116.016 317.644 114.84 317.829C113.684 318.006 112.56 317.855 111.468 317.376C110.376 316.897 109.49 315.875 108.809 314.31C108.682 314.016 108.451 313.512 108.117 312.796C107.791 312.1 107.44 311.346 107.063 310.533ZM136.677 365.709C132.479 369.135 128.272 370.627 124.056 370.185C119.854 369.76 115.999 367.399 112.492 363.102C108.998 358.821 107.457 354.571 107.869 350.352C108.281 346.134 110.586 342.311 114.784 338.885L136.154 321.443L136.759 321.527L139.126 324.428C140.367 325.948 140.922 327.437 140.789 328.895C140.674 330.338 139.732 331.782 137.963 333.225L121.204 346.903C118.94 348.751 117.567 350.561 117.084 352.331C116.618 354.088 117.195 355.959 118.813 357.942C120.446 359.942 122.169 360.889 123.984 360.785C125.815 360.667 127.863 359.684 130.127 357.836L151.572 340.334C152.213 340.884 152.834 341.493 153.434 342.16C154.063 342.83 154.594 343.43 155.026 343.959C155.417 344.438 155.911 345.094 156.509 345.928C157.137 346.765 157.65 347.545 158.046 348.267L136.677 365.709ZM164.433 353.445C163.317 352.815 162.248 352.29 161.226 351.871L135.095 386.837C135.623 387.399 136.267 387.957 137.026 388.513C137.792 389.098 138.517 389.608 139.202 390.041C139.851 390.452 140.503 390.839 141.157 391.202C141.811 391.565 142.478 391.886 143.16 392.166L153.526 377.632C154.843 375.79 156.267 373.737 157.799 371.475C159.349 369.224 160.692 367.221 161.827 365.466L162.179 365.688L153.582 391.072C154.163 391.591 154.878 392.156 155.727 392.769C156.588 393.364 157.289 393.833 157.829 394.175C158.443 394.563 159.193 395.012 160.081 395.523C160.981 396.017 161.79 396.414 162.507 396.717L181.759 378.073L182.138 378.312C181.02 380.079 179.776 382.145 178.407 384.51C177.037 386.875 175.802 389.047 174.702 391.026L165.985 406.603C166.547 407.11 167.124 407.576 167.714 408C168.322 408.435 168.951 408.858 169.6 409.268C170.303 409.713 171.074 410.15 171.913 410.58C172.759 411.039 173.539 411.381 174.255 411.607L194.652 373.014C193.853 372.281 192.921 371.54 191.856 370.79C190.79 370.041 189.861 369.415 189.067 368.913C188.274 368.411 187.374 367.88 186.366 367.318C185.376 366.767 184.37 366.283 183.348 365.863L171.792 377.069C171.514 377.348 171.035 377.827 170.353 378.507C169.671 379.186 168.902 379.962 168.047 380.835C167.21 381.719 166.385 382.585 165.57 383.433C164.756 384.281 164.078 385.014 163.537 385.63L163.158 385.391C163.483 384.637 163.855 383.711 164.272 382.612C164.708 381.524 165.137 380.407 165.559 379.261C165.981 378.114 166.353 377.088 166.675 376.18C167.014 375.284 167.25 374.651 167.384 374.281L172.557 359.038C171.74 358.294 170.862 357.587 169.923 356.917C168.984 356.247 168.117 355.662 167.324 355.16C166.531 354.658 165.567 354.086 164.433 353.445ZM226.445 396.845C225.585 400.083 224.205 402.619 222.305 404.454C220.431 406.274 218.204 407.426 215.625 407.911C213.067 408.401 210.324 408.258 207.396 407.48L202.541 406.19L199.025 419.427C198.162 419.353 197.261 419.213 196.322 419.007C195.398 418.828 194.607 418.651 193.947 418.476C193.349 418.317 192.584 418.081 191.652 417.767C190.714 417.474 189.863 417.148 189.097 416.79L200.236 374.853L200.784 374.535C203.44 375.174 205.917 375.777 208.217 376.343C210.543 376.895 212.87 377.48 215.2 378.099C218.128 378.876 220.584 380.102 222.567 381.777C224.576 383.436 225.94 385.531 226.659 388.062C227.403 390.577 227.332 393.505 226.445 396.845ZM208.34 384.355L204.512 398.768C205.384 398.977 206.193 399.17 206.941 399.347C207.709 399.529 208.248 399.661 208.557 399.743C210.207 400.181 211.558 400.12 212.612 399.561C213.665 399.003 214.481 398.215 215.06 397.199C215.645 396.162 216.068 395.149 216.331 394.159C216.589 393.19 216.718 392.121 216.72 390.951C216.727 389.761 216.412 388.662 215.774 387.654C215.137 386.646 213.994 385.923 212.344 385.485L210.489 384.992C209.876 384.807 209.159 384.595 208.34 384.355ZM255.888 393.141C255.936 393.823 256.004 394.598 256.093 395.468L259.185 425.839C260.07 425.899 260.971 425.904 261.888 425.854C262.807 425.824 263.628 425.773 264.349 425.7C265.05 425.628 265.853 425.514 266.759 425.358C267.667 425.222 268.549 425.036 269.404 424.799L266.312 394.428C266.223 393.558 266.134 392.784 266.043 392.107C265.951 391.409 265.859 390.614 265.769 389.723L265.832 389.716C266.299 389.669 266.969 389.611 267.841 389.544C268.713 389.477 269.383 389.419 269.85 389.372L271.728 389.18C273.553 388.995 274.856 388.519 275.636 387.753C276.435 386.964 276.75 385.742 276.581 384.087C276.514 383.429 276.392 382.755 276.215 382.065C276.056 381.353 275.876 380.738 275.673 380.223L244.156 383.432C244.085 384.211 244.067 384.974 244.1 385.721C244.133 386.468 244.18 387.139 244.24 387.733C244.299 388.306 244.387 388.962 244.505 389.7C244.621 390.418 244.792 391.151 245.018 391.9L251.608 391.229C252.075 391.181 252.743 391.103 253.611 390.993C254.479 390.883 255.146 390.804 255.613 390.757L255.677 390.75C255.767 391.642 255.838 392.439 255.888 393.141ZM310.828 381.894C311.528 383.818 311.781 385.667 311.587 387.441C311.385 389.194 310.906 390.776 310.148 392.187C309.383 393.578 308.509 394.702 307.527 395.559C308.796 395.551 309.98 395.904 311.079 396.616C312.198 397.321 313.229 398.251 314.172 399.406L317.826 403.831C319.216 405.527 320.748 406.65 322.423 407.198C322.094 408.226 321.436 409.226 320.451 410.197C319.465 411.169 318.331 411.889 317.048 412.356C315.324 412.983 313.903 412.978 312.785 412.341C311.661 411.683 310.442 410.549 309.129 408.939L304.676 403.442C303.956 402.524 303.103 401.835 302.119 401.376C301.127 400.897 299.83 400.95 298.226 401.534L295.73 402.442L301.214 417.507C300.464 417.939 299.665 418.332 298.817 418.686C297.977 419.06 297.226 419.367 296.565 419.608C295.983 419.82 295.231 420.06 294.307 420.328C293.39 420.616 292.515 420.833 291.682 420.977L276.839 380.203L277.106 379.629C279.65 378.634 282.098 377.687 284.449 376.785C286.812 375.857 289.137 374.977 291.422 374.145C294.208 373.13 296.872 372.683 299.413 372.802C301.974 372.914 304.236 373.703 306.199 375.167C308.183 376.625 309.726 378.867 310.828 381.894ZM288.757 383.288L293.048 395.075C293.976 394.692 294.847 394.341 295.661 394.022C296.496 393.695 297.104 393.462 297.485 393.324C299.008 392.769 300.072 392.075 300.677 391.242C301.295 390.382 301.593 389.456 301.573 388.464C301.573 387.465 301.39 386.465 301.025 385.462C300.646 384.42 300.135 383.516 299.493 382.751C298.871 381.978 298.055 381.481 297.043 381.259C296.044 381.01 294.783 381.162 293.259 381.717L291.184 382.472C290.443 382.742 289.634 383.014 288.757 383.288ZM336.728 390.232C337.122 389.976 337.458 389.749 337.736 389.551L345.155 384.247C345.433 384.048 345.756 383.804 346.126 383.513C346.495 383.223 346.844 382.96 347.174 382.724L350.62 385.453C352.401 386.881 353.888 387.64 355.081 387.732C356.262 387.805 357.511 387.371 358.83 386.428C359.611 385.87 360.391 385.181 361.169 384.362C361.965 383.531 362.531 382.746 362.868 382.007L326.68 355.05C325.916 355.412 325.047 355.902 324.073 356.52C323.086 357.121 322.263 357.657 321.604 358.128C320.91 358.625 320.113 359.234 319.213 359.956C318.33 360.665 317.596 361.308 317.011 361.884L330.463 405.018L331.092 405.237C331.697 405.093 332.421 404.785 333.264 404.313C334.136 403.847 334.885 403.39 335.51 402.944C336.152 402.484 336.75 402.018 337.302 401.544C337.885 401.075 338.393 400.594 338.827 400.1L335.642 390.969C335.989 390.721 336.351 390.475 336.728 390.232ZM332.916 383.084L331.203 378.212C330.81 377.076 330.355 375.815 329.836 374.429C329.322 373.013 328.79 371.61 328.242 370.219C327.693 368.828 327.158 367.584 326.637 366.488L326.949 366.265C328.611 367.673 330.419 369.174 332.371 370.768C334.323 372.361 336.02 373.744 337.462 374.917L340.699 377.519L339.684 378.245C339.342 378.464 339.041 378.666 338.78 378.852L334.98 381.569C334.685 381.78 334.353 382.031 333.983 382.321L332.916 383.084ZM365.499 339.507C364.151 338.358 362.744 337.45 361.279 336.784C359.811 336.088 358.375 335.843 356.971 336.05C355.564 336.227 354.269 337.045 353.086 338.503C351.353 340.64 351.11 342.97 352.359 345.494C353.605 347.988 356.117 350.767 359.894 353.832C363.423 356.694 366.551 358.257 369.278 358.518C372.018 358.764 374.269 357.801 376.029 355.631C377.427 353.908 378.319 352.063 378.706 350.096C379.106 348.113 379.339 346.201 379.404 344.359C380.566 344.01 381.931 343.868 383.5 343.932C385.083 343.979 386.412 344.288 387.487 344.859C387.652 346.586 387.562 348.491 387.218 350.574C386.871 352.627 386.246 354.702 385.342 356.798C384.455 358.908 383.265 360.882 381.773 362.721C379.663 365.323 377.384 367.1 374.935 368.052C372.483 368.975 369.989 369.273 367.453 368.946C364.9 368.606 362.399 367.827 359.952 366.611C357.502 365.365 355.208 363.875 353.071 362.141C348.912 358.768 346.047 355.359 344.474 351.913C342.915 348.45 342.408 345.114 342.953 341.902C343.498 338.691 344.846 335.759 346.996 333.109C349.079 330.541 351.349 328.674 353.806 327.508C356.276 326.325 358.713 325.843 361.117 326.063C363.535 326.266 365.721 327.16 367.676 328.746C369.217 329.996 370.006 331.309 370.043 332.686C370.077 334.032 369.516 335.417 368.361 336.842C367.89 337.422 367.419 337.919 366.946 338.332C366.487 338.729 366.005 339.12 365.499 339.507ZM410.945 308.419C410.966 307.052 410.661 305.868 410.031 304.866C409.423 305.134 408.845 305.334 408.297 305.465C407.749 305.596 407.089 305.666 406.315 305.674C405.551 305.663 404.507 305.598 403.183 305.48L394.893 304.686C393.088 304.495 391.392 304.586 389.805 304.958C388.199 305.321 386.731 306.399 385.403 308.191C385.13 307.277 384.764 306.392 384.302 305.536C383.822 304.67 383.251 303.823 382.591 302.995L372.284 289.977L371.421 290.19C370.937 291.073 370.448 292.022 369.952 293.04C369.436 294.048 369.011 294.933 368.675 295.694C368.071 297.06 367.891 298.181 368.133 299.058C368.375 299.934 368.918 300.897 369.761 301.946L377.826 312.12C378.445 312.883 378.822 313.481 378.957 313.914C379.073 314.338 378.967 314.921 378.639 315.663C378.461 316.12 378.255 316.613 378.022 317.139L362.596 310.325C362.115 311.045 361.661 311.836 361.234 312.697C360.796 313.53 360.439 314.258 360.163 314.883C359.913 315.449 359.619 316.193 359.281 317.117C358.924 318.032 358.645 318.9 358.446 319.721L398.43 337.384C398.903 336.683 399.357 335.893 399.793 335.012C400.248 334.14 400.6 333.421 400.85 332.856C401.126 332.231 401.424 331.477 401.745 330.592C402.094 329.697 402.373 328.829 402.581 327.988L385.896 320.618C386.266 319.568 386.602 318.702 386.904 318.019C387.516 316.634 388.398 315.694 389.549 315.2C390.7 314.705 392.332 314.575 394.444 314.808L402.264 315.639C404.309 315.866 405.939 315.793 407.153 315.419C408.367 315.046 409.35 314.011 410.099 312.313C410.651 311.064 410.933 309.766 410.945 308.419Z" fill="white"/>
</svg>
